<svg width="30" height="30" viewBox="0 0 30 30" fill="none" xmlns="http://www.w3.org/2000/svg">
<path d="M14.0287 3.03959C14.3832 2.84264 14.5605 2.74417 14.7482 2.70556C14.9143 2.67139 15.0857 2.67139 15.2518 2.70556C15.4395 2.74417 15.6168 2.84264 15.9713 3.03959L25.2213 8.17848C25.5957 8.38648 25.7829 8.49048 25.9192 8.6384C26.0398 8.76926 26.1311 8.92437 26.1869 9.09334C26.25 9.28433 26.25 9.49849 26.25 9.92679V20.0732C26.25 20.5015 26.25 20.7156 26.1869 20.9066C26.1311 21.0756 26.0398 21.2307 25.9192 21.3616C25.7829 21.5095 25.5957 21.6135 25.2213 21.8215L15.9713 26.9604C15.6168 27.1573 15.4395 27.2558 15.2518 27.2944C15.0857 27.3286 14.9143 27.3286 14.7482 27.2944C14.5605 27.2558 14.3832 27.1573 14.0287 26.9604L4.77872 21.8215C4.40431 21.6135 4.21711 21.5095 4.08079 21.3616C3.9602 21.2307 3.86893 21.0756 3.81311 20.9066C3.75 20.7156 3.75 20.5015 3.75 20.0732V9.92679C3.75 9.49849 3.75 9.28434 3.81311 9.09334C3.86893 8.92437 3.9602 8.76927 4.08079 8.6384C4.21711 8.49048 4.40431 8.38648 4.77871 8.17848L14.0287 3.03959Z" fill="#C3AA83"/>
<path d="M25.625 9.09717L15 14.9999M15 14.9999L4.37496 9.09717M15 14.9999L15 26.875M26.25 20.0732V9.92679C26.25 9.49849 26.25 9.28433 26.1869 9.09334C26.1311 8.92437 26.0398 8.76926 25.9192 8.6384C25.7829 8.49048 25.5957 8.38648 25.2213 8.17848L15.9713 3.03959C15.6168 2.84264 15.4395 2.74417 15.2518 2.70556C15.0857 2.67139 14.9143 2.67139 14.7482 2.70556C14.5605 2.74417 14.3832 2.84264 14.0287 3.03959L4.77871 8.17848C4.40431 8.38648 4.21711 8.49048 4.08079 8.6384C3.9602 8.76927 3.86893 8.92437 3.81311 9.09334C3.75 9.28434 3.75 9.49849 3.75 9.92679V20.0732C3.75 20.5015 3.75 20.7156 3.81311 20.9066C3.86893 21.0756 3.9602 21.2307 4.08079 21.3616C4.21711 21.5095 4.40431 21.6135 4.77872 21.8215L14.0287 26.9604C14.3832 27.1573 14.5605 27.2558 14.7482 27.2944C14.9143 27.3286 15.0857 27.3286 15.2518 27.2944C15.4395 27.2558 15.6168 27.1573 15.9713 26.9604L25.2213 21.8215C25.5957 21.6135 25.7829 21.5095 25.9192 21.3616C26.0398 21.2307 26.1311 21.0756 26.1869 20.9066C26.25 20.7156 26.25 20.5015 26.25 20.0732Z" stroke="#A08F73" stroke-width="2" stroke-linecap="round" stroke-linejoin="round"/>
<path d="M20.625 11.875L9.375 5.625" stroke="#A08F73" stroke-width="2" stroke-linecap="round" stroke-linejoin="round"/>
</svg>
