<svg width="44" height="44" viewBox="0 0 44 44" fill="none" xmlns="http://www.w3.org/2000/svg">
<path d="M22 41.75C32.7696 41.75 41.5 33.0196 41.5 22.25C41.5 11.4804 32.7696 2.75 22 2.75C11.2304 2.75 2.5 11.4804 2.5 22.25C2.5 33.0196 11.2304 41.75 22 41.75Z" fill="#3E639F"/>
<path d="M22 28.1C25.2309 28.1 27.85 25.4809 27.85 22.25C27.85 19.0191 25.2309 16.4 22 16.4C18.7691 16.4 16.15 19.0191 16.15 22.25C16.15 25.4809 18.7691 28.1 22 28.1Z" fill="#3E639F"/>
<path d="M22 41.75C32.7696 41.75 41.5 33.0196 41.5 22.25C41.5 11.4804 32.7696 2.75 22 2.75C11.2304 2.75 2.5 11.4804 2.5 22.25C2.5 33.0196 11.2304 41.75 22 41.75Z" stroke="#4186F5" stroke-width="4" stroke-linecap="round" stroke-linejoin="round"/>
<path d="M22 28.1C25.2309 28.1 27.85 25.4809 27.85 22.25C27.85 19.0191 25.2309 16.4 22 16.4C18.7691 16.4 16.15 19.0191 16.15 22.25C16.15 25.4809 18.7691 28.1 22 28.1Z" stroke="#4186F5" stroke-width="4" stroke-linecap="round" stroke-linejoin="round"/>
</svg>
