<svg width="30" height="30" viewBox="0 0 30 30" fill="none" xmlns="http://www.w3.org/2000/svg">
<path d="M2.5 11.5C2.5 10.0999 2.5 9.3998 2.77248 8.86502C3.01217 8.39462 3.39462 8.01217 3.86502 7.77248C4.3998 7.5 5.09987 7.5 6.5 7.5H23.5C24.9001 7.5 25.6002 7.5 26.135 7.77248C26.6054 8.01217 26.9878 8.39462 27.2275 8.86502C27.5 9.3998 27.5 10.0999 27.5 11.5V18.5C27.5 19.9001 27.5 20.6002 27.2275 21.135C26.9878 21.6054 26.6054 21.9878 26.135 22.2275C25.6002 22.5 24.9001 22.5 23.5 22.5H6.5C5.09987 22.5 4.3998 22.5 3.86502 22.2275C3.39462 21.9878 3.01217 21.6054 2.77248 21.135C2.5 20.6002 2.5 19.9001 2.5 18.5V11.5Z" fill="#3E639F"/>
<path d="M7.5 15H12.5M10 12.5V17.5M18.75 16.25H18.7625M22.5 13.75H22.5125M6.5 22.5H23.5C24.9001 22.5 25.6002 22.5 26.135 22.2275C26.6054 21.9878 26.9878 21.6054 27.2275 21.135C27.5 20.6002 27.5 19.9001 27.5 18.5V11.5C27.5 10.0999 27.5 9.3998 27.2275 8.86502C26.9878 8.39462 26.6054 8.01217 26.135 7.77248C25.6002 7.5 24.9001 7.5 23.5 7.5H6.5C5.09987 7.5 4.3998 7.5 3.86502 7.77248C3.39462 8.01217 3.01217 8.39462 2.77248 8.86502C2.5 9.3998 2.5 10.0999 2.5 11.5V18.5C2.5 19.9001 2.5 20.6002 2.77248 21.135C3.01217 21.6054 3.39462 21.9878 3.86502 22.2275C4.3998 22.5 5.09987 22.5 6.5 22.5Z" stroke="#4186F5" stroke-width="2" stroke-linecap="round" stroke-linejoin="round"/>
</svg>
