<svg width="24" height="28" viewBox="0 0 24 28" fill="none" xmlns="http://www.w3.org/2000/svg">
<path d="M13.5 22.25C13.5 21.5499 13.5 21.1999 13.6362 20.9325C13.7561 20.6973 13.9473 20.5061 14.1825 20.3862C14.4499 20.25 14.7999 20.25 15.5 20.25H20.25C20.9501 20.25 21.3001 20.25 21.5675 20.3862C21.8027 20.5061 21.9939 20.6973 22.1138 20.9325C22.25 21.1999 22.25 21.5499 22.25 22.25V23.25C22.25 23.9501 22.25 24.3001 22.1138 24.5675C21.9939 24.8027 21.8027 24.9939 21.5675 25.1138C21.3001 25.25 20.9501 25.25 20.25 25.25H15.5C14.7999 25.25 14.4499 25.25 14.1825 25.1138C13.9473 24.9939 13.7561 24.8027 13.6362 24.5675C13.5 24.3001 13.5 23.9501 13.5 23.25V22.25Z" fill="#3E639F"/>
<path d="M21 11.5V7.5C21 5.3998 21 4.3497 20.5913 3.54754C20.2317 2.84193 19.6581 2.26825 18.9525 1.90873C18.1503 1.5 17.1002 1.5 15 1.5H7C4.8998 1.5 3.8497 1.5 3.04754 1.90873C2.34193 2.26825 1.76825 2.84193 1.40873 3.54754C1 4.3497 1 5.3998 1 7.5V20.5C1 22.6002 1 23.6503 1.40873 24.4525C1.76825 25.1581 2.34193 25.7317 3.04754 26.0913C3.8497 26.5 4.8998 26.5 7 26.5H9.125M12.25 12.75H6M9.75 17.75H6M16 7.75H6M20.0625 20.25V18.0625C20.0625 16.8544 19.0831 15.875 17.875 15.875C16.6669 15.875 15.6875 16.8544 15.6875 18.0625V20.25M15.5 25.25H20.25C20.9501 25.25 21.3001 25.25 21.5675 25.1138C21.8027 24.9939 21.9939 24.8027 22.1138 24.5675C22.25 24.3001 22.25 23.9501 22.25 23.25V22.25C22.25 21.5499 22.25 21.1999 22.1138 20.9325C21.9939 20.6973 21.8027 20.5061 21.5675 20.3862C21.3001 20.25 20.9501 20.25 20.25 20.25H15.5C14.7999 20.25 14.4499 20.25 14.1825 20.3862C13.9473 20.5061 13.7561 20.6973 13.6362 20.9325C13.5 21.1999 13.5 21.5499 13.5 22.25V23.25C13.5 23.9501 13.5 24.3001 13.6362 24.5675C13.7561 24.8027 13.9473 24.9939 14.1825 25.1138C14.4499 25.25 14.7999 25.25 15.5 25.25Z" stroke="#4186F5" stroke-width="2" stroke-linecap="round" stroke-linejoin="round"/>
</svg>
