<svg width="44" height="43" viewBox="0 0 44 43" fill="none" xmlns="http://www.w3.org/2000/svg">
<path d="M2.75 16.5167C2.75 14.0898 2.75 12.8763 3.22231 11.9494C3.63776 11.134 4.30067 10.4711 5.11604 10.0556C6.04299 9.58333 7.25644 9.58333 9.68333 9.58333H26.2307C26.7607 9.58333 27.0256 9.58333 27.275 9.6432C27.4961 9.69628 27.7074 9.78382 27.9013 9.90261C28.1199 10.0366 28.3073 10.224 28.682 10.5987L33.1513 15.068C33.526 15.4427 33.7134 15.6301 33.8474 15.8487C33.9662 16.0426 34.0537 16.2539 34.1068 16.475C34.1667 16.7244 34.1667 16.9893 34.1667 17.5193V34.0667C34.1667 36.4936 34.1667 37.707 33.6944 38.634C33.2789 39.4493 32.616 40.1122 31.8006 40.5277C30.8737 41 29.6602 41 27.2333 41H9.68333C7.25644 41 6.04299 41 5.11604 40.5277C4.30067 40.1122 3.63776 39.4493 3.22231 38.634C2.75 37.707 2.75 36.4936 2.75 34.0667V16.5167Z" fill="#3E639F"/>
<path d="M11.4167 2H28.0448C29.1047 2 29.6346 2 30.1333 2.11973C30.5755 2.22588 30.9982 2.40097 31.3859 2.63856C31.8232 2.90654 32.1979 3.28127 32.9474 4.03073L39.7193 10.8026C40.4687 11.5521 40.8435 11.9268 41.1114 12.3641C41.349 12.7518 41.5241 13.1745 41.6303 13.6167C41.75 14.1154 41.75 14.6453 41.75 15.7052V32.3333M23.3333 17.1667H14.8833C13.6699 17.1667 13.0632 17.1667 12.5997 16.9305C12.192 16.7228 11.8605 16.3913 11.6528 15.9836C11.4167 15.5202 11.4167 14.9134 11.4167 13.7V9.58333M25.5 41V31.4667C25.5 30.2532 25.5 29.6465 25.2638 29.183C25.0561 28.7753 24.7247 28.4439 24.317 28.2362C23.8535 28 23.2468 28 22.0333 28H14.8833C13.6699 28 13.0632 28 12.5997 28.2362C12.192 28.4439 11.8605 28.7753 11.6528 29.183C11.4167 29.6465 11.4167 30.2532 11.4167 31.4667V41M34.1667 17.5193V34.0667C34.1667 36.4936 34.1667 37.707 33.6944 38.634C33.2789 39.4493 32.616 40.1122 31.8006 40.5277C30.8737 41 29.6602 41 27.2333 41H9.68333C7.25644 41 6.04299 41 5.11604 40.5277C4.30067 40.1122 3.63776 39.4493 3.22231 38.634C2.75 37.707 2.75 36.4936 2.75 34.0667V16.5167C2.75 14.0898 2.75 12.8763 3.22231 11.9494C3.63776 11.134 4.30067 10.4711 5.11604 10.0556C6.04299 9.58333 7.25644 9.58333 9.68333 9.58333H26.2307C26.7607 9.58333 27.0256 9.58333 27.275 9.6432C27.4961 9.69628 27.7074 9.78382 27.9013 9.90261C28.1199 10.0366 28.3073 10.224 28.682 10.5987L33.1513 15.068C33.526 15.4427 33.7134 15.6301 33.8474 15.8487C33.9662 16.0426 34.0537 16.2539 34.1068 16.475C34.1667 16.7244 34.1667 16.9893 34.1667 17.5193Z" stroke="#4186F5" stroke-width="4" stroke-linecap="round" stroke-linejoin="round"/>
</svg>
