<svg width="28" height="28" viewBox="0 0 28 28" fill="none" xmlns="http://www.w3.org/2000/svg">
<rect x="3" y="17" width="22" height="7" fill="#3E639F"/>
<path d="M25.6667 20.4167L24.8596 8.71471C24.7329 6.87754 24.6696 5.95896 24.2714 5.26263C23.9208 4.64955 23.393 4.15687 22.7573 3.84932C22.0352 3.5 21.1144 3.5 19.2729 3.5H8.72709C6.88556 3.5 5.96479 3.5 5.24272 3.84932C4.60698 4.15687 4.07915 4.64955 3.72859 5.26263C3.33041 5.95896 3.26706 6.87754 3.14036 8.7147L2.33333 20.4167M25.6667 20.4167C25.6667 22.6718 23.8385 24.5 21.5833 24.5H6.41666C4.1615 24.5 2.33333 22.6718 2.33333 20.4167M25.6667 20.4167C25.6667 18.1615 23.8385 16.3333 21.5833 16.3333H6.41666C4.1615 16.3333 2.33333 18.1615 2.33333 20.4167M6.99999 20.4167H7.01166M14 20.4167H21" stroke="#4186F5" stroke-width="2" stroke-linecap="round" stroke-linejoin="round"/>
</svg>
