<svg width="30" height="30" viewBox="0 0 30 30" fill="none" xmlns="http://www.w3.org/2000/svg">
<path d="M22.5777 10.625L7.42228 19.375M22.5777 10.625L23.9503 5.5024M22.5777 10.625L27.7003 11.9976M7.42228 19.375L2.29968 18.0024M7.42228 19.375L6.04968 24.4976M22.5776 19.3748L7.42217 10.6248M22.5776 19.3748L27.7003 18.0023M22.5776 19.3748L23.9503 24.4974M7.42217 10.6248L6.04986 5.50254M7.42217 10.6248L2.29986 11.9977M15 6.25L15 23.75M15 6.25L11.25 2.5M15 6.25L18.75 2.5M15 23.75L11.25 27.5M15 23.75L18.75 27.5" stroke="#4186F5" stroke-width="2" stroke-linecap="round" stroke-linejoin="round"/>
</svg>
