<svg width="44" height="43" viewBox="0 0 44 43" fill="none" xmlns="http://www.w3.org/2000/svg">
<path d="M23.7 3.95L27.0816 12.7423C27.6316 14.1721 27.9065 14.887 28.3341 15.4883C28.7131 16.0213 29.1787 16.4869 29.7117 16.8659C30.313 17.2935 31.0279 17.5684 32.4577 18.1184L41.25 21.5L32.4577 24.8816C31.0279 25.4316 30.313 25.7065 29.7117 26.1341C29.1787 26.5131 28.7131 26.9787 28.3341 27.5117C27.9065 28.113 27.6316 28.8279 27.0816 30.2577L23.7 39.05L20.3184 30.2577C19.7684 28.8279 19.4935 28.113 19.0659 27.5117C18.6869 26.9787 18.2213 26.5131 17.6883 26.1341C17.087 25.7065 16.3721 25.4316 14.9423 24.8816L6.15 21.5L14.9423 18.1184C16.3721 17.5684 17.087 17.2935 17.6883 16.8659C18.2213 16.4869 18.6869 16.0213 19.0659 15.4883C19.4935 14.887 19.7684 14.1721 20.3184 12.7423L23.7 3.95Z" fill="#4186F5"/>
<path d="M7.125 41V31.25M7.125 11.75V2M2.25 6.875H12M2.25 36.125H12M23.7 3.95L20.3184 12.7423C19.7684 14.1721 19.4935 14.887 19.0659 15.4883C18.6869 16.0213 18.2213 16.4869 17.6883 16.8659C17.087 17.2935 16.3721 17.5684 14.9423 18.1184L6.15 21.5L14.9423 24.8816C16.3721 25.4316 17.087 25.7065 17.6883 26.1341C18.2213 26.5131 18.6869 26.9787 19.0659 27.5117C19.4935 28.113 19.7684 28.8279 20.3184 30.2577L23.7 39.05L27.0816 30.2577C27.6316 28.8279 27.9065 28.113 28.3341 27.5117C28.7131 26.9787 29.1787 26.5131 29.7117 26.1341C30.313 25.7065 31.0279 25.4316 32.4577 24.8816L41.25 21.5L32.4577 18.1184C31.0279 17.5684 30.313 17.2935 29.7117 16.8659C29.1787 16.4869 28.7131 16.0213 28.3341 15.4883C27.9065 14.887 27.6316 14.1721 27.0816 12.7423L23.7 3.95Z" stroke="#3E414A" stroke-width="4" stroke-linecap="round" stroke-linejoin="round"/>
</svg>
