<svg width="34" height="34" viewBox="0 0 34 34" fill="none" xmlns="http://www.w3.org/2000/svg">
<path d="M7.53146 27.5377C8.39325 25.5073 10.4053 24.0833 12.75 24.0833H21.25C23.5947 24.0833 25.6068 25.5074 26.4686 27.5377M22.6667 13.4583C22.6667 16.5879 20.1297 19.125 17 19.125C13.8704 19.125 11.3334 16.5879 11.3334 13.4583C11.3334 10.3287 13.8704 7.79165 17 7.79165C20.1297 7.79165 22.6667 10.3287 22.6667 13.4583ZM31.1667 17C31.1667 24.824 24.8241 31.1666 17 31.1666C9.17601 31.1666 2.83337 24.824 2.83337 17C2.83337 9.17595 9.17601 2.83331 17 2.83331C24.8241 2.83331 31.1667 9.17595 31.1667 17Z" stroke="#4186F5" stroke-width="2" stroke-linecap="round" stroke-linejoin="round"/>
</svg>
